<mxfile host="app.diagrams.net" modified="2024-03-30T11:51:00.264Z" agent="Mozilla/5.0 (Windows NT 10.0; Win64; x64) AppleWebKit/537.36 (KHTML, like Gecko) Chrome/123.0.0.0 Safari/537.36" etag="o4jA4RdfPJ1MFcuR87lC" version="24.2.1" type="device">
  <diagram name="ページ1" id="CZ9OhvfIGhc1R4UvG9S_">
    <mxGraphModel dx="989" dy="514" grid="1" gridSize="10" guides="1" tooltips="1" connect="1" arrows="1" fold="1" page="1" pageScale="1" pageWidth="827" pageHeight="1169" math="0" shadow="0">
      <root>
        <mxCell id="0" />
        <mxCell id="1" parent="0" />
        <mxCell id="3KcYhy6o5AEIvBAS_8RD-7" style="edgeStyle=orthogonalEdgeStyle;rounded=0;orthogonalLoop=1;jettySize=auto;html=1;" edge="1" parent="1" source="3KcYhy6o5AEIvBAS_8RD-1" target="3KcYhy6o5AEIvBAS_8RD-6">
          <mxGeometry relative="1" as="geometry" />
        </mxCell>
        <mxCell id="3KcYhy6o5AEIvBAS_8RD-1" value="&lt;div&gt;トランクブランチの&lt;/div&gt;最新コミット*から&lt;div&gt;リリースブランチ作成&lt;/div&gt;" style="rounded=0;whiteSpace=wrap;html=1;" vertex="1" parent="1">
          <mxGeometry x="40" y="20" width="150" height="60" as="geometry" />
        </mxCell>
        <mxCell id="3KcYhy6o5AEIvBAS_8RD-9" style="edgeStyle=orthogonalEdgeStyle;rounded=0;orthogonalLoop=1;jettySize=auto;html=1;entryX=0.5;entryY=0;entryDx=0;entryDy=0;" edge="1" parent="1" source="3KcYhy6o5AEIvBAS_8RD-2" target="3KcYhy6o5AEIvBAS_8RD-3">
          <mxGeometry relative="1" as="geometry" />
        </mxCell>
        <mxCell id="3KcYhy6o5AEIvBAS_8RD-2" value="&lt;div&gt;リリースまでに&lt;/div&gt;&lt;div&gt;修正必須のバグが&lt;/div&gt;&lt;div&gt;見つかった&lt;/div&gt;" style="rhombus;whiteSpace=wrap;html=1;" vertex="1" parent="1">
          <mxGeometry x="40" y="190" width="150" height="90" as="geometry" />
        </mxCell>
        <mxCell id="3KcYhy6o5AEIvBAS_8RD-11" style="edgeStyle=orthogonalEdgeStyle;rounded=0;orthogonalLoop=1;jettySize=auto;html=1;entryX=0.5;entryY=0;entryDx=0;entryDy=0;" edge="1" parent="1" source="3KcYhy6o5AEIvBAS_8RD-3" target="3KcYhy6o5AEIvBAS_8RD-4">
          <mxGeometry relative="1" as="geometry" />
        </mxCell>
        <mxCell id="3KcYhy6o5AEIvBAS_8RD-3" value="&lt;div&gt;トランクブランチに&lt;/div&gt;修正を適用" style="rounded=0;whiteSpace=wrap;html=1;" vertex="1" parent="1">
          <mxGeometry x="50" y="310" width="130" height="50" as="geometry" />
        </mxCell>
        <mxCell id="3KcYhy6o5AEIvBAS_8RD-4" value="&lt;div&gt;リリースブランチに&lt;/div&gt;修正をコピー" style="rounded=0;whiteSpace=wrap;html=1;" vertex="1" parent="1">
          <mxGeometry x="50" y="390" width="130" height="50" as="geometry" />
        </mxCell>
        <mxCell id="3KcYhy6o5AEIvBAS_8RD-5" value="*一部例外あり" style="text;html=1;align=center;verticalAlign=middle;whiteSpace=wrap;rounded=0;" vertex="1" parent="1">
          <mxGeometry x="200" y="45" width="90" height="30" as="geometry" />
        </mxCell>
        <mxCell id="3KcYhy6o5AEIvBAS_8RD-8" style="edgeStyle=orthogonalEdgeStyle;rounded=0;orthogonalLoop=1;jettySize=auto;html=1;entryX=0.5;entryY=0;entryDx=0;entryDy=0;" edge="1" parent="1" source="3KcYhy6o5AEIvBAS_8RD-6" target="3KcYhy6o5AEIvBAS_8RD-2">
          <mxGeometry relative="1" as="geometry" />
        </mxCell>
        <mxCell id="3KcYhy6o5AEIvBAS_8RD-6" value="&lt;div&gt;リリースブランチで&lt;/div&gt;アプリ作成し、テスト" style="rounded=0;whiteSpace=wrap;html=1;" vertex="1" parent="1">
          <mxGeometry x="40" y="110" width="150" height="50" as="geometry" />
        </mxCell>
        <mxCell id="3KcYhy6o5AEIvBAS_8RD-10" value="Yes" style="text;html=1;align=center;verticalAlign=middle;whiteSpace=wrap;rounded=0;" vertex="1" parent="1">
          <mxGeometry x="100" y="270" width="60" height="30" as="geometry" />
        </mxCell>
      </root>
    </mxGraphModel>
  </diagram>
</mxfile>
